{
  "header": {
    "PPQ": 96,
    "timeSignature": [
      4,
      4
    ],
    "bpm": 120,
    "name": ""
  },
  "startTime": 4,
  "duration": 48,
  "tracks": [
    {
      "startTime": 5,
      "duration": 48,
      "length": 77,
      "notes": [
        {
          "name": "D2",
          "midi": 38,
          "time": 5,
          "velocity": 0.6614173228346457,
          "duration": 1
        },
        {
          "name": "D2",
          "midi": 38,
          "time": 7,
          "velocity": 0.6614173228346457,
          "duration": 1
        },
        {
          "name": "D2",
          "midi": 38,
          "time": 9,
          "velocity": 0.6614173228346457,
          "duration": 1
        },
        {
          "name": "D2",
          "midi": 38,
          "time": 11,
          "velocity": 0.6614173228346457,
          "duration": 1
        },
        {
          "name": "C2",
          "midi": 36,
          "time": 12,
          "velocity": 0.6614173228346457,
          "duration": 1
        },
        {
          "name": "C2",
          "midi": 36,
          "time": 13,
          "velocity": 0.6614173228346457,
          "duration": 1
        },
        {
          "name": "D2",
          "midi": 38,
          "time": 15,
          "velocity": 0.6614173228346457,
          "duration": 1
        },
        {
          "name": "F2",
          "midi": 41,
          "time": 16,
          "velocity": 0.7637795275590551,
          "duration": 1
        },
        {
          "name": "F#2",
          "midi": 42,
          "time": 16,
          "velocity": 1,
          "duration": 0.5
        },
        {
          "name": "F#2",
          "midi": 42,
          "time": 16.5,
          "velocity": 1,
          "duration": 0.5
        },
        {
          "name": "F2",
          "midi": 41,
          "time": 17,
          "velocity": 0.7559055118110236,
          "duration": 1
        },
        {
          "name": "F#2",
          "midi": 42,
          "time": 17,
          "velocity": 1,
          "duration": 0.5
        },
        {
          "name": "F#2",
          "midi": 42,
          "time": 17.5,
          "velocity": 1,
          "duration": 0.5
        },
        {
          "name": "F2",
          "midi": 41,
          "time": 18,
          "velocity": 0.7559055118110236,
          "duration": 1
        },
        {
          "name": "F#2",
          "midi": 42,
          "time": 18,
          "velocity": 1,
          "duration": 0.5
        },
        {
          "name": "F#2",
          "midi": 42,
          "time": 18.5,
          "velocity": 1,
          "duration": 0.5
        },
        {
          "name": "F2",
          "midi": 41,
          "time": 19,
          "velocity": 0.7559055118110236,
          "duration": 1
        },
        {
          "name": "F#2",
          "midi": 42,
          "time": 19,
          "velocity": 1,
          "duration": 0.5
        },
        {
          "name": "F#2",
          "midi": 42,
          "time": 19.5,
          "velocity": 1,
          "duration": 0.5
        },
        {
          "name": "F2",
          "midi": 41,
          "time": 20,
          "velocity": 0.7480314960629921,
          "duration": 1
        },
        {
          "name": "F#2",
          "midi": 42,
          "time": 20,
          "velocity": 1,
          "duration": 0.5
        },
        {
          "name": "F#2",
          "midi": 42,
          "time": 20.5,
          "velocity": 1,
          "duration": 0.5
        },
        {
          "name": "F2",
          "midi": 41,
          "time": 21,
          "velocity": 0.7480314960629921,
          "duration": 1
        },
        {
          "name": "F#2",
          "midi": 42,
          "time": 21,
          "velocity": 1,
          "duration": 0.5
        },
        {
          "name": "F#2",
          "midi": 42,
          "time": 21.5,
          "velocity": 1,
          "duration": 0.5
        },
        {
          "name": "F2",
          "midi": 41,
          "time": 22,
          "velocity": 0.7480314960629921,
          "duration": 1
        },
        {
          "name": "F#2",
          "midi": 42,
          "time": 22,
          "velocity": 1,
          "duration": 0.5
        },
        {
          "name": "F#2",
          "midi": 42,
          "time": 22.5,
          "velocity": 1,
          "duration": 0.5
        },
        {
          "name": "F2",
          "midi": 41,
          "time": 23,
          "velocity": 0.7480314960629921,
          "duration": 1
        },
        {
          "name": "F#2",
          "midi": 42,
          "time": 23,
          "velocity": 1,
          "duration": 0.5
        },
        {
          "name": "F#2",
          "midi": 42,
          "time": 23.5,
          "velocity": 1,
          "duration": 0.5
        },
        {
          "name": "F2",
          "midi": 41,
          "time": 24,
          "velocity": 0.7480314960629921,
          "duration": 1
        },
        {
          "name": "F#2",
          "midi": 42,
          "time": 24,
          "velocity": 1,
          "duration": 0.5
        },
        {
          "name": "F#2",
          "midi": 42,
          "time": 24.5,
          "velocity": 1,
          "duration": 0.5
        },
        {
          "name": "F2",
          "midi": 41,
          "time": 25,
          "velocity": 0.7480314960629921,
          "duration": 1
        },
        {
          "name": "F#2",
          "midi": 42,
          "time": 25,
          "velocity": 1,
          "duration": 0.5
        },
        {
          "name": "F#2",
          "midi": 42,
          "time": 25.5,
          "velocity": 1,
          "duration": 0.5
        },
        {
          "name": "F2",
          "midi": 41,
          "time": 26,
          "velocity": 0.7480314960629921,
          "duration": 1
        },
        {
          "name": "F#2",
          "midi": 42,
          "time": 26,
          "velocity": 1,
          "duration": 0.5
        },
        {
          "name": "F#2",
          "midi": 42,
          "time": 26.5,
          "velocity": 1,
          "duration": 0.5
        },
        {
          "name": "F2",
          "midi": 41,
          "time": 27,
          "velocity": 0.7480314960629921,
          "duration": 1
        },
        {
          "name": "F#2",
          "midi": 42,
          "time": 27,
          "velocity": 1,
          "duration": 0.5
        },
        {
          "name": "F#2",
          "midi": 42,
          "time": 27.5,
          "velocity": 1,
          "duration": 0.5
        },
        {
          "name": "F#2",
          "midi": 42,
          "time": 28,
          "velocity": 1,
          "duration": 0.5
        },
        {
          "name": "A2",
          "midi": 45,
          "time": 28,
          "velocity": 0.7244094488188977,
          "duration": 1
        },
        {
          "name": "F#2",
          "midi": 42,
          "time": 28.5,
          "velocity": 1,
          "duration": 0.5
        },
        {
          "name": "F#2",
          "midi": 42,
          "time": 29,
          "velocity": 1,
          "duration": 0.5
        },
        {
          "name": "A2",
          "midi": 45,
          "time": 29,
          "velocity": 0.7244094488188977,
          "duration": 1
        },
        {
          "name": "F2",
          "midi": 41,
          "time": 30,
          "velocity": 1,
          "duration": 0.5
        },
        {
          "name": "A2",
          "midi": 45,
          "time": 30,
          "velocity": 0.7244094488188977,
          "duration": 1
        },
        {
          "name": "F#2",
          "midi": 42,
          "time": 30.5,
          "velocity": 1,
          "duration": 0.5
        },
        {
          "name": "F#2",
          "midi": 42,
          "time": 31,
          "velocity": 1,
          "duration": 0.5
        },
        {
          "name": "A2",
          "midi": 45,
          "time": 31,
          "velocity": 0.7244094488188977,
          "duration": 1
        },
        {
          "name": "F#2",
          "midi": 42,
          "time": 31.5,
          "velocity": 1,
          "duration": 0.5
        },
        {
          "name": "F#2",
          "midi": 42,
          "time": 32,
          "velocity": 1,
          "duration": 0.5
        },
        {
          "name": "A2",
          "midi": 45,
          "time": 32,
          "velocity": 0.7244094488188977,
          "duration": 1
        },
        {
          "name": "F#2",
          "midi": 42,
          "time": 32.5,
          "velocity": 1,
          "duration": 0.5
        },
        {
          "name": "F#2",
          "midi": 42,
          "time": 33,
          "velocity": 1,
          "duration": 0.5
        },
        {
          "name": "A2",
          "midi": 45,
          "time": 33,
          "velocity": 0.7244094488188977,
          "duration": 1
        },
        {
          "name": "F#2",
          "midi": 42,
          "time": 33.5,
          "velocity": 1,
          "duration": 0.5
        },
        {
          "name": "F2",
          "midi": 41,
          "time": 34,
          "velocity": 1,
          "duration": 0.5
        },
        {
          "name": "F#2",
          "midi": 42,
          "time": 34,
          "velocity": 1,
          "duration": 0.5
        },
        {
          "name": "A2",
          "midi": 45,
          "time": 34,
          "velocity": 0.7244094488188977,
          "duration": 1
        },
        {
          "name": "F#2",
          "midi": 42,
          "time": 34.5,
          "velocity": 1,
          "duration": 0.5
        },
        {
          "name": "F#2",
          "midi": 42,
          "time": 35,
          "velocity": 1,
          "duration": 0.5
        },
        {
          "name": "A2",
          "midi": 45,
          "time": 35,
          "velocity": 0.7244094488188977,
          "duration": 1
        },
        {
          "name": "F#2",
          "midi": 42,
          "time": 35.5,
          "velocity": 1,
          "duration": 0.5
        },
        {
          "name": "C2",
          "midi": 36,
          "time": 36,
          "velocity": 0.6614173228346457,
          "duration": 1
        },
        {
          "name": "A2",
          "midi": 45,
          "time": 36,
          "velocity": 0.7244094488188977,
          "duration": 1
        },
        {
          "name": "C2",
          "midi": 36,
          "time": 37,
          "velocity": 0.6614173228346457,
          "duration": 1
        },
        {
          "name": "D2",
          "midi": 38,
          "time": 39,
          "velocity": 0.6614173228346457,
          "duration": 1
        },
        {
          "name": "C2",
          "midi": 36,
          "time": 40,
          "velocity": 0.6614173228346457,
          "duration": 1
        },
        {
          "name": "C2",
          "midi": 36,
          "time": 41,
          "velocity": 0.6614173228346457,
          "duration": 1
        },
        {
          "name": "D2",
          "midi": 38,
          "time": 43,
          "velocity": 0.6614173228346457,
          "duration": 1
        },
        {
          "name": "C2",
          "midi": 36,
          "time": 44,
          "velocity": 0.6614173228346457,
          "duration": 1
        },
        {
          "name": "C2",
          "midi": 36,
          "time": 45,
          "velocity": 0.6692913385826772,
          "duration": 1
        },
        {
          "name": "D2",
          "midi": 38,
          "time": 47,
          "velocity": 0.6692913385826772,
          "duration": 1
        }
      ],
      "controlChanges": {},
      "id": 0,
      "name": "drumsMIDI",
      "channelNumber": 0,
      "isPercussion": false
    },
    {
      "startTime": 4,
      "duration": 49,
      "length": 77,
      "notes": [
        {
          "name": "F2",
          "midi": 41,
          "time": 4,
          "velocity": 0.7637795275590551,
          "duration": 1
        },
        {
          "name": "F#2",
          "midi": 42,
          "time": 4,
          "velocity": 1,
          "duration": 0.5
        },
        {
          "name": "F#2",
          "midi": 42,
          "time": 4.5,
          "velocity": 1,
          "duration": 0.5
        },
        {
          "name": "F2",
          "midi": 41,
          "time": 5,
          "velocity": 0.7559055118110236,
          "duration": 1
        },
        {
          "name": "F#2",
          "midi": 42,
          "time": 5,
          "velocity": 1,
          "duration": 0.5
        },
        {
          "name": "F#2",
          "midi": 42,
          "time": 5.5,
          "velocity": 1,
          "duration": 0.5
        },
        {
          "name": "F2",
          "midi": 41,
          "time": 6,
          "velocity": 0.7559055118110236,
          "duration": 1
        },
        {
          "name": "F#2",
          "midi": 42,
          "time": 6,
          "velocity": 1,
          "duration": 0.5
        },
        {
          "name": "F#2",
          "midi": 42,
          "time": 6.5,
          "velocity": 1,
          "duration": 0.5
        },
        {
          "name": "F2",
          "midi": 41,
          "time": 7,
          "velocity": 0.7559055118110236,
          "duration": 1
        },
        {
          "name": "F#2",
          "midi": 42,
          "time": 7,
          "velocity": 1,
          "duration": 0.5
        },
        {
          "name": "F#2",
          "midi": 42,
          "time": 7.5,
          "velocity": 1,
          "duration": 0.5
        },
        {
          "name": "F2",
          "midi": 41,
          "time": 8,
          "velocity": 0.7480314960629921,
          "duration": 1
        },
        {
          "name": "F#2",
          "midi": 42,
          "time": 8,
          "velocity": 1,
          "duration": 0.5
        },
        {
          "name": "F#2",
          "midi": 42,
          "time": 8.5,
          "velocity": 1,
          "duration": 0.5
        },
        {
          "name": "F2",
          "midi": 41,
          "time": 9,
          "velocity": 0.7480314960629921,
          "duration": 1
        },
        {
          "name": "F#2",
          "midi": 42,
          "time": 9,
          "velocity": 1,
          "duration": 0.5
        },
        {
          "name": "F#2",
          "midi": 42,
          "time": 9.5,
          "velocity": 1,
          "duration": 0.5
        },
        {
          "name": "F2",
          "midi": 41,
          "time": 10,
          "velocity": 0.7480314960629921,
          "duration": 1
        },
        {
          "name": "F#2",
          "midi": 42,
          "time": 10,
          "velocity": 1,
          "duration": 0.5
        },
        {
          "name": "F#2",
          "midi": 42,
          "time": 10.5,
          "velocity": 1,
          "duration": 0.5
        },
        {
          "name": "F2",
          "midi": 41,
          "time": 11,
          "velocity": 0.7480314960629921,
          "duration": 1
        },
        {
          "name": "F#2",
          "midi": 42,
          "time": 11,
          "velocity": 1,
          "duration": 0.5
        },
        {
          "name": "F#2",
          "midi": 42,
          "time": 11.5,
          "velocity": 1,
          "duration": 0.5
        },
        {
          "name": "F2",
          "midi": 41,
          "time": 12,
          "velocity": 0.7480314960629921,
          "duration": 1
        },
        {
          "name": "F#2",
          "midi": 42,
          "time": 12,
          "velocity": 1,
          "duration": 0.5
        },
        {
          "name": "F#2",
          "midi": 42,
          "time": 12.5,
          "velocity": 1,
          "duration": 0.5
        },
        {
          "name": "F2",
          "midi": 41,
          "time": 13,
          "velocity": 0.7480314960629921,
          "duration": 1
        },
        {
          "name": "F#2",
          "midi": 42,
          "time": 13,
          "velocity": 1,
          "duration": 0.5
        },
        {
          "name": "F#2",
          "midi": 42,
          "time": 13.5,
          "velocity": 1,
          "duration": 0.5
        },
        {
          "name": "F2",
          "midi": 41,
          "time": 14,
          "velocity": 0.7480314960629921,
          "duration": 1
        },
        {
          "name": "F#2",
          "midi": 42,
          "time": 14,
          "velocity": 1,
          "duration": 0.5
        },
        {
          "name": "F#2",
          "midi": 42,
          "time": 14.5,
          "velocity": 1,
          "duration": 0.5
        },
        {
          "name": "F2",
          "midi": 41,
          "time": 15,
          "velocity": 0.7480314960629921,
          "duration": 1
        },
        {
          "name": "F#2",
          "midi": 42,
          "time": 15,
          "velocity": 1,
          "duration": 0.5
        },
        {
          "name": "F#2",
          "midi": 42,
          "time": 15.5,
          "velocity": 1,
          "duration": 0.5
        },
        {
          "name": "D2",
          "midi": 38,
          "time": 17,
          "velocity": 0.6614173228346457,
          "duration": 1
        },
        {
          "name": "D2",
          "midi": 38,
          "time": 19,
          "velocity": 0.6614173228346457,
          "duration": 1
        },
        {
          "name": "D2",
          "midi": 38,
          "time": 21,
          "velocity": 0.6614173228346457,
          "duration": 1
        },
        {
          "name": "D2",
          "midi": 38,
          "time": 23,
          "velocity": 0.6614173228346457,
          "duration": 1
        },
        {
          "name": "C2",
          "midi": 36,
          "time": 24,
          "velocity": 0.6614173228346457,
          "duration": 1
        },
        {
          "name": "C2",
          "midi": 36,
          "time": 25,
          "velocity": 0.6614173228346457,
          "duration": 1
        },
        {
          "name": "D2",
          "midi": 38,
          "time": 27,
          "velocity": 0.6614173228346457,
          "duration": 1
        },
        {
          "name": "C2",
          "midi": 36,
          "time": 28,
          "velocity": 0.6614173228346457,
          "duration": 1
        },
        {
          "name": "C2",
          "midi": 36,
          "time": 29,
          "velocity": 0.6614173228346457,
          "duration": 1
        },
        {
          "name": "D2",
          "midi": 38,
          "time": 31,
          "velocity": 0.6614173228346457,
          "duration": 1
        },
        {
          "name": "C2",
          "midi": 36,
          "time": 32,
          "velocity": 0.6614173228346457,
          "duration": 1
        },
        {
          "name": "C2",
          "midi": 36,
          "time": 33,
          "velocity": 0.6614173228346457,
          "duration": 1
        },
        {
          "name": "D2",
          "midi": 38,
          "time": 35,
          "velocity": 0.6614173228346457,
          "duration": 1
        },
        {
          "name": "C2",
          "midi": 36,
          "time": 36,
          "velocity": 0.6614173228346457,
          "duration": 1
        },
        {
          "name": "C2",
          "midi": 36,
          "time": 37,
          "velocity": 0.6692913385826772,
          "duration": 1
        },
        {
          "name": "D2",
          "midi": 38,
          "time": 39,
          "velocity": 0.6692913385826772,
          "duration": 1
        },
        {
          "name": "F#2",
          "midi": 42,
          "time": 40,
          "velocity": 1,
          "duration": 0.5
        },
        {
          "name": "A2",
          "midi": 45,
          "time": 40,
          "velocity": 0.7244094488188977,
          "duration": 1
        },
        {
          "name": "F#2",
          "midi": 42,
          "time": 40.5,
          "velocity": 1,
          "duration": 0.5
        },
        {
          "name": "F#2",
          "midi": 42,
          "time": 41,
          "velocity": 1,
          "duration": 0.5
        },
        {
          "name": "A2",
          "midi": 45,
          "time": 41,
          "velocity": 0.7244094488188977,
          "duration": 1
        },
        {
          "name": "F2",
          "midi": 41,
          "time": 42,
          "velocity": 1,
          "duration": 0.5
        },
        {
          "name": "A2",
          "midi": 45,
          "time": 42,
          "velocity": 0.7244094488188977,
          "duration": 1
        },
        {
          "name": "F#2",
          "midi": 42,
          "time": 42.5,
          "velocity": 1,
          "duration": 0.5
        },
        {
          "name": "F#2",
          "midi": 42,
          "time": 43,
          "velocity": 1,
          "duration": 0.5
        },
        {
          "name": "A2",
          "midi": 45,
          "time": 43,
          "velocity": 0.7244094488188977,
          "duration": 1
        },
        {
          "name": "F#2",
          "midi": 42,
          "time": 43.5,
          "velocity": 1,
          "duration": 0.5
        },
        {
          "name": "F#2",
          "midi": 42,
          "time": 44,
          "velocity": 1,
          "duration": 0.5
        },
        {
          "name": "A2",
          "midi": 45,
          "time": 44,
          "velocity": 0.7244094488188977,
          "duration": 1
        },
        {
          "name": "F#2",
          "midi": 42,
          "time": 44.5,
          "velocity": 1,
          "duration": 0.5
        },
        {
          "name": "F#2",
          "midi": 42,
          "time": 45,
          "velocity": 1,
          "duration": 0.5
        },
        {
          "name": "A2",
          "midi": 45,
          "time": 45,
          "velocity": 0.7244094488188977,
          "duration": 1
        },
        {
          "name": "F#2",
          "midi": 42,
          "time": 45.5,
          "velocity": 1,
          "duration": 0.5
        },
        {
          "name": "F2",
          "midi": 41,
          "time": 46,
          "velocity": 1,
          "duration": 0.5
        },
        {
          "name": "F#2",
          "midi": 42,
          "time": 46,
          "velocity": 1,
          "duration": 0.5
        },
        {
          "name": "A2",
          "midi": 45,
          "time": 46,
          "velocity": 0.7244094488188977,
          "duration": 1
        },
        {
          "name": "F#2",
          "midi": 42,
          "time": 46.5,
          "velocity": 1,
          "duration": 0.5
        },
        {
          "name": "F#2",
          "midi": 42,
          "time": 47,
          "velocity": 1,
          "duration": 0.5
        },
        {
          "name": "A2",
          "midi": 45,
          "time": 47,
          "velocity": 0.7244094488188977,
          "duration": 1
        },
        {
          "name": "F#2",
          "midi": 42,
          "time": 47.5,
          "velocity": 1,
          "duration": 0.5
        },
        {
          "name": "A2",
          "midi": 45,
          "time": 48,
          "velocity": 0.7244094488188977,
          "duration": 1
        }
      ],
      "controlChanges": {},
      "id": 0,
      "name": "drumsMIDI",
      "channelNumber": 0,
      "isPercussion": false
    },
    {
      "startTime": 4,
      "duration": 47.5,
      "length": 78,
      "notes": [
        {
          "name": "C2",
          "midi": 36,
          "time": 4,
          "velocity": 0.7874015748031497,
          "duration": 0.5
        },
        {
          "name": "D2",
          "midi": 38,
          "time": 5.5,
          "velocity": 0.7559055118110236,
          "duration": 0.5
        },
        {
          "name": "C2",
          "midi": 36,
          "time": 7,
          "velocity": 0.7795275590551181,
          "duration": 0.5
        },
        {
          "name": "D2",
          "midi": 38,
          "time": 7.5,
          "velocity": 0.7795275590551181,
          "duration": 0.5
        },
        {
          "name": "C2",
          "midi": 36,
          "time": 8,
          "velocity": 1,
          "duration": 0.5
        },
        {
          "name": "D2",
          "midi": 38,
          "time": 9.5,
          "velocity": 0.7559055118110236,
          "duration": 0.5
        },
        {
          "name": "C2",
          "midi": 36,
          "time": 11,
          "velocity": 0.7480314960629921,
          "duration": 0.5
        },
        {
          "name": "D2",
          "midi": 38,
          "time": 11.5,
          "velocity": 0.7559055118110236,
          "duration": 0.5
        },
        {
          "name": "C2",
          "midi": 36,
          "time": 12,
          "velocity": 1,
          "duration": 0.5
        },
        {
          "name": "D2",
          "midi": 38,
          "time": 12.5,
          "velocity": 0.7559055118110236,
          "duration": 0.25
        },
        {
          "name": "F#2",
          "midi": 42,
          "time": 12.75,
          "velocity": 0.7559055118110236,
          "duration": 0.25
        },
        {
          "name": "D2",
          "midi": 38,
          "time": 13.5,
          "velocity": 0.7559055118110236,
          "duration": 0.25
        },
        {
          "name": "D2",
          "midi": 38,
          "time": 14.5,
          "velocity": 0.7559055118110236,
          "duration": 0.25
        },
        {
          "name": "F#2",
          "midi": 42,
          "time": 14.75,
          "velocity": 0.7559055118110236,
          "duration": 0.25
        },
        {
          "name": "D2",
          "midi": 38,
          "time": 15.5,
          "velocity": 0.7559055118110236,
          "duration": 0.25
        },
        {
          "name": "C2",
          "midi": 36,
          "time": 16,
          "velocity": 1,
          "duration": 0.5
        },
        {
          "name": "D2",
          "midi": 38,
          "time": 16.5,
          "velocity": 0.7559055118110236,
          "duration": 0.25
        },
        {
          "name": "F#2",
          "midi": 42,
          "time": 16.75,
          "velocity": 0.7559055118110236,
          "duration": 0.25
        },
        {
          "name": "D2",
          "midi": 38,
          "time": 17.5,
          "velocity": 0.7559055118110236,
          "duration": 0.25
        },
        {
          "name": "D2",
          "midi": 38,
          "time": 18.5,
          "velocity": 0.7559055118110236,
          "duration": 0.25
        },
        {
          "name": "F#2",
          "midi": 42,
          "time": 18.75,
          "velocity": 0.7559055118110236,
          "duration": 0.25
        },
        {
          "name": "D2",
          "midi": 38,
          "time": 19.5,
          "velocity": 0.7559055118110236,
          "duration": 0.25
        },
        {
          "name": "C2",
          "midi": 36,
          "time": 20,
          "velocity": 1,
          "duration": 0.5
        },
        {
          "name": "D2",
          "midi": 38,
          "time": 20.5,
          "velocity": 0.7559055118110236,
          "duration": 0.25
        },
        {
          "name": "F#2",
          "midi": 42,
          "time": 20.75,
          "velocity": 0.7559055118110236,
          "duration": 0.25
        },
        {
          "name": "D2",
          "midi": 38,
          "time": 21.5,
          "velocity": 0.7559055118110236,
          "duration": 0.25
        },
        {
          "name": "D2",
          "midi": 38,
          "time": 22.5,
          "velocity": 0.7559055118110236,
          "duration": 0.25
        },
        {
          "name": "F#2",
          "midi": 42,
          "time": 22.75,
          "velocity": 0.7559055118110236,
          "duration": 0.25
        },
        {
          "name": "D2",
          "midi": 38,
          "time": 23.5,
          "velocity": 0.7559055118110236,
          "duration": 0.25
        },
        {
          "name": "F#2",
          "midi": 42,
          "time": 24,
          "velocity": 0.7637795275590551,
          "duration": 0.25
        },
        {
          "name": "F#2",
          "midi": 42,
          "time": 24.25,
          "velocity": 0.7637795275590551,
          "duration": 0.25
        },
        {
          "name": "D2",
          "midi": 38,
          "time": 24.5,
          "velocity": 0.7559055118110236,
          "duration": 0.25
        },
        {
          "name": "F#2",
          "midi": 42,
          "time": 24.75,
          "velocity": 0.7559055118110236,
          "duration": 0.25
        },
        {
          "name": "F#2",
          "midi": 42,
          "time": 25.25,
          "velocity": 0.7637795275590551,
          "duration": 0.25
        },
        {
          "name": "D2",
          "midi": 38,
          "time": 25.5,
          "velocity": 0.7559055118110236,
          "duration": 0.25
        },
        {
          "name": "F#2",
          "midi": 42,
          "time": 25.75,
          "velocity": 0.7637795275590551,
          "duration": 0.25
        },
        {
          "name": "C2",
          "midi": 36,
          "time": 26,
          "velocity": 0.7637795275590551,
          "duration": 0.25
        },
        {
          "name": "F#2",
          "midi": 42,
          "time": 26.25,
          "velocity": 0.7637795275590551,
          "duration": 0.25
        },
        {
          "name": "D2",
          "midi": 38,
          "time": 26.5,
          "velocity": 0.7559055118110236,
          "duration": 0.25
        },
        {
          "name": "F#2",
          "midi": 42,
          "time": 26.75,
          "velocity": 0.7559055118110236,
          "duration": 0.25
        },
        {
          "name": "C2",
          "midi": 36,
          "time": 27,
          "velocity": 0.7637795275590551,
          "duration": 0.25
        },
        {
          "name": "F#2",
          "midi": 42,
          "time": 27.25,
          "velocity": 0.7637795275590551,
          "duration": 0.25
        },
        {
          "name": "D2",
          "midi": 38,
          "time": 27.5,
          "velocity": 0.7637795275590551,
          "duration": 0.25
        },
        {
          "name": "F#2",
          "midi": 42,
          "time": 28,
          "velocity": 0.7637795275590551,
          "duration": 0.25
        },
        {
          "name": "F#2",
          "midi": 42,
          "time": 28.25,
          "velocity": 0.7637795275590551,
          "duration": 0.25
        },
        {
          "name": "D2",
          "midi": 38,
          "time": 28.5,
          "velocity": 0.7559055118110236,
          "duration": 0.25
        },
        {
          "name": "F#2",
          "midi": 42,
          "time": 28.75,
          "velocity": 0.7559055118110236,
          "duration": 0.25
        },
        {
          "name": "F#2",
          "midi": 42,
          "time": 29.25,
          "velocity": 0.7637795275590551,
          "duration": 0.25
        },
        {
          "name": "D2",
          "midi": 38,
          "time": 29.5,
          "velocity": 0.7559055118110236,
          "duration": 0.25
        },
        {
          "name": "F#2",
          "midi": 42,
          "time": 29.75,
          "velocity": 0.7637795275590551,
          "duration": 0.25
        },
        {
          "name": "C2",
          "midi": 36,
          "time": 30,
          "velocity": 0.7637795275590551,
          "duration": 0.25
        },
        {
          "name": "F#2",
          "midi": 42,
          "time": 30.25,
          "velocity": 0.7637795275590551,
          "duration": 0.25
        },
        {
          "name": "D2",
          "midi": 38,
          "time": 30.5,
          "velocity": 0.7559055118110236,
          "duration": 0.25
        },
        {
          "name": "F#2",
          "midi": 42,
          "time": 30.75,
          "velocity": 0.7559055118110236,
          "duration": 0.25
        },
        {
          "name": "C2",
          "midi": 36,
          "time": 31,
          "velocity": 0.7637795275590551,
          "duration": 0.25
        },
        {
          "name": "F#2",
          "midi": 42,
          "time": 31.25,
          "velocity": 0.7637795275590551,
          "duration": 0.25
        },
        {
          "name": "D2",
          "midi": 38,
          "time": 31.5,
          "velocity": 0.7637795275590551,
          "duration": 0.25
        },
        {
          "name": "D2",
          "midi": 38,
          "time": 33,
          "velocity": 1,
          "duration": 0.5
        },
        {
          "name": "C2",
          "midi": 36,
          "time": 34.5,
          "velocity": 1,
          "duration": 0.5
        },
        {
          "name": "D2",
          "midi": 38,
          "time": 35,
          "velocity": 1,
          "duration": 0.5
        },
        {
          "name": "C2",
          "midi": 36,
          "time": 36,
          "velocity": 1,
          "duration": 0.5
        },
        {
          "name": "D2",
          "midi": 38,
          "time": 37,
          "velocity": 1,
          "duration": 0.5
        },
        {
          "name": "C2",
          "midi": 36,
          "time": 38.5,
          "velocity": 1,
          "duration": 0.5
        },
        {
          "name": "D2",
          "midi": 38,
          "time": 39,
          "velocity": 1,
          "duration": 0.5
        },
        {
          "name": "C2",
          "midi": 36,
          "time": 40,
          "velocity": 1,
          "duration": 0.5
        },
        {
          "name": "D2",
          "midi": 38,
          "time": 40.5,
          "velocity": 0.36220472440944884,
          "duration": 0.5
        },
        {
          "name": "D2",
          "midi": 38,
          "time": 41,
          "velocity": 1,
          "duration": 0.5
        },
        {
          "name": "A2",
          "midi": 45,
          "time": 41.5,
          "velocity": 1,
          "duration": 0.5
        },
        {
          "name": "F2",
          "midi": 41,
          "time": 42,
          "velocity": 1,
          "duration": 0.5
        },
        {
          "name": "C2",
          "midi": 36,
          "time": 42.5,
          "velocity": 1,
          "duration": 0.5
        },
        {
          "name": "D2",
          "midi": 38,
          "time": 43,
          "velocity": 1,
          "duration": 0.5
        },
        {
          "name": "C2",
          "midi": 36,
          "time": 44,
          "velocity": 1,
          "duration": 0.5
        },
        {
          "name": "D2",
          "midi": 38,
          "time": 44.5,
          "velocity": 0.36220472440944884,
          "duration": 0.5
        },
        {
          "name": "D2",
          "midi": 38,
          "time": 45,
          "velocity": 1,
          "duration": 0.5
        },
        {
          "name": "A2",
          "midi": 45,
          "time": 45.5,
          "velocity": 1,
          "duration": 0.5
        },
        {
          "name": "F2",
          "midi": 41,
          "time": 46,
          "velocity": 1,
          "duration": 0.5
        },
        {
          "name": "C2",
          "midi": 36,
          "time": 46.5,
          "velocity": 1,
          "duration": 0.5
        },
        {
          "name": "D2",
          "midi": 38,
          "time": 47,
          "velocity": 1,
          "duration": 0.5
        }
      ],
      "controlChanges": {},
      "id": 0,
      "name": "drumsMIDI",
      "channelNumber": 0,
      "isPercussion": false
    },
    {
      "startTime": 5,
      "duration": 48,
      "length": 77,
      "notes": [
        {
          "name": "D2",
          "midi": 38,
          "time": 5,
          "velocity": 0.6614173228346457,
          "duration": 1
        },
        {
          "name": "D2",
          "midi": 38,
          "time": 7,
          "velocity": 0.6614173228346457,
          "duration": 1
        },
        {
          "name": "D2",
          "midi": 38,
          "time": 9,
          "velocity": 0.6614173228346457,
          "duration": 1
        },
        {
          "name": "D2",
          "midi": 38,
          "time": 11,
          "velocity": 0.6614173228346457,
          "duration": 1
        },
        {
          "name": "C2",
          "midi": 36,
          "time": 12,
          "velocity": 0.6614173228346457,
          "duration": 1
        },
        {
          "name": "C2",
          "midi": 36,
          "time": 13,
          "velocity": 0.6614173228346457,
          "duration": 1
        },
        {
          "name": "D2",
          "midi": 38,
          "time": 15,
          "velocity": 0.6614173228346457,
          "duration": 1
        },
        {
          "name": "F2",
          "midi": 41,
          "time": 16,
          "velocity": 0.7637795275590551,
          "duration": 1
        },
        {
          "name": "F#2",
          "midi": 42,
          "time": 16,
          "velocity": 1,
          "duration": 0.5
        },
        {
          "name": "F#2",
          "midi": 42,
          "time": 16.5,
          "velocity": 1,
          "duration": 0.5
        },
        {
          "name": "F2",
          "midi": 41,
          "time": 17,
          "velocity": 0.7559055118110236,
          "duration": 1
        },
        {
          "name": "F#2",
          "midi": 42,
          "time": 17,
          "velocity": 1,
          "duration": 0.5
        },
        {
          "name": "F#2",
          "midi": 42,
          "time": 17.5,
          "velocity": 1,
          "duration": 0.5
        },
        {
          "name": "F2",
          "midi": 41,
          "time": 18,
          "velocity": 0.7559055118110236,
          "duration": 1
        },
        {
          "name": "F#2",
          "midi": 42,
          "time": 18,
          "velocity": 1,
          "duration": 0.5
        },
        {
          "name": "F#2",
          "midi": 42,
          "time": 18.5,
          "velocity": 1,
          "duration": 0.5
        },
        {
          "name": "F2",
          "midi": 41,
          "time": 19,
          "velocity": 0.7559055118110236,
          "duration": 1
        },
        {
          "name": "F#2",
          "midi": 42,
          "time": 19,
          "velocity": 1,
          "duration": 0.5
        },
        {
          "name": "F#2",
          "midi": 42,
          "time": 19.5,
          "velocity": 1,
          "duration": 0.5
        },
        {
          "name": "F2",
          "midi": 41,
          "time": 20,
          "velocity": 0.7480314960629921,
          "duration": 1
        },
        {
          "name": "F#2",
          "midi": 42,
          "time": 20,
          "velocity": 1,
          "duration": 0.5
        },
        {
          "name": "F#2",
          "midi": 42,
          "time": 20.5,
          "velocity": 1,
          "duration": 0.5
        },
        {
          "name": "F2",
          "midi": 41,
          "time": 21,
          "velocity": 0.7480314960629921,
          "duration": 1
        },
        {
          "name": "F#2",
          "midi": 42,
          "time": 21,
          "velocity": 1,
          "duration": 0.5
        },
        {
          "name": "F#2",
          "midi": 42,
          "time": 21.5,
          "velocity": 1,
          "duration": 0.5
        },
        {
          "name": "F2",
          "midi": 41,
          "time": 22,
          "velocity": 0.7480314960629921,
          "duration": 1
        },
        {
          "name": "F#2",
          "midi": 42,
          "time": 22,
          "velocity": 1,
          "duration": 0.5
        },
        {
          "name": "F#2",
          "midi": 42,
          "time": 22.5,
          "velocity": 1,
          "duration": 0.5
        },
        {
          "name": "F2",
          "midi": 41,
          "time": 23,
          "velocity": 0.7480314960629921,
          "duration": 1
        },
        {
          "name": "F#2",
          "midi": 42,
          "time": 23,
          "velocity": 1,
          "duration": 0.5
        },
        {
          "name": "F#2",
          "midi": 42,
          "time": 23.5,
          "velocity": 1,
          "duration": 0.5
        },
        {
          "name": "F2",
          "midi": 41,
          "time": 24,
          "velocity": 0.7480314960629921,
          "duration": 1
        },
        {
          "name": "F#2",
          "midi": 42,
          "time": 24,
          "velocity": 1,
          "duration": 0.5
        },
        {
          "name": "F#2",
          "midi": 42,
          "time": 24.5,
          "velocity": 1,
          "duration": 0.5
        },
        {
          "name": "F2",
          "midi": 41,
          "time": 25,
          "velocity": 0.7480314960629921,
          "duration": 1
        },
        {
          "name": "F#2",
          "midi": 42,
          "time": 25,
          "velocity": 1,
          "duration": 0.5
        },
        {
          "name": "F#2",
          "midi": 42,
          "time": 25.5,
          "velocity": 1,
          "duration": 0.5
        },
        {
          "name": "F2",
          "midi": 41,
          "time": 26,
          "velocity": 0.7480314960629921,
          "duration": 1
        },
        {
          "name": "F#2",
          "midi": 42,
          "time": 26,
          "velocity": 1,
          "duration": 0.5
        },
        {
          "name": "F#2",
          "midi": 42,
          "time": 26.5,
          "velocity": 1,
          "duration": 0.5
        },
        {
          "name": "F2",
          "midi": 41,
          "time": 27,
          "velocity": 0.7480314960629921,
          "duration": 1
        },
        {
          "name": "F#2",
          "midi": 42,
          "time": 27,
          "velocity": 1,
          "duration": 0.5
        },
        {
          "name": "F#2",
          "midi": 42,
          "time": 27.5,
          "velocity": 1,
          "duration": 0.5
        },
        {
          "name": "F#2",
          "midi": 42,
          "time": 28,
          "velocity": 1,
          "duration": 0.5
        },
        {
          "name": "A2",
          "midi": 45,
          "time": 28,
          "velocity": 0.7244094488188977,
          "duration": 1
        },
        {
          "name": "F#2",
          "midi": 42,
          "time": 28.5,
          "velocity": 1,
          "duration": 0.5
        },
        {
          "name": "F#2",
          "midi": 42,
          "time": 29,
          "velocity": 1,
          "duration": 0.5
        },
        {
          "name": "A2",
          "midi": 45,
          "time": 29,
          "velocity": 0.7244094488188977,
          "duration": 1
        },
        {
          "name": "F2",
          "midi": 41,
          "time": 30,
          "velocity": 1,
          "duration": 0.5
        },
        {
          "name": "A2",
          "midi": 45,
          "time": 30,
          "velocity": 0.7244094488188977,
          "duration": 1
        },
        {
          "name": "F#2",
          "midi": 42,
          "time": 30.5,
          "velocity": 1,
          "duration": 0.5
        },
        {
          "name": "F#2",
          "midi": 42,
          "time": 31,
          "velocity": 1,
          "duration": 0.5
        },
        {
          "name": "A2",
          "midi": 45,
          "time": 31,
          "velocity": 0.7244094488188977,
          "duration": 1
        },
        {
          "name": "F#2",
          "midi": 42,
          "time": 31.5,
          "velocity": 1,
          "duration": 0.5
        },
        {
          "name": "F#2",
          "midi": 42,
          "time": 32,
          "velocity": 1,
          "duration": 0.5
        },
        {
          "name": "A2",
          "midi": 45,
          "time": 32,
          "velocity": 0.7244094488188977,
          "duration": 1
        },
        {
          "name": "F#2",
          "midi": 42,
          "time": 32.5,
          "velocity": 1,
          "duration": 0.5
        },
        {
          "name": "F#2",
          "midi": 42,
          "time": 33,
          "velocity": 1,
          "duration": 0.5
        },
        {
          "name": "A2",
          "midi": 45,
          "time": 33,
          "velocity": 0.7244094488188977,
          "duration": 1
        },
        {
          "name": "F#2",
          "midi": 42,
          "time": 33.5,
          "velocity": 1,
          "duration": 0.5
        },
        {
          "name": "F2",
          "midi": 41,
          "time": 34,
          "velocity": 1,
          "duration": 0.5
        },
        {
          "name": "F#2",
          "midi": 42,
          "time": 34,
          "velocity": 1,
          "duration": 0.5
        },
        {
          "name": "A2",
          "midi": 45,
          "time": 34,
          "velocity": 0.7244094488188977,
          "duration": 1
        },
        {
          "name": "F#2",
          "midi": 42,
          "time": 34.5,
          "velocity": 1,
          "duration": 0.5
        },
        {
          "name": "F#2",
          "midi": 42,
          "time": 35,
          "velocity": 1,
          "duration": 0.5
        },
        {
          "name": "A2",
          "midi": 45,
          "time": 35,
          "velocity": 0.7244094488188977,
          "duration": 1
        },
        {
          "name": "F#2",
          "midi": 42,
          "time": 35.5,
          "velocity": 1,
          "duration": 0.5
        },
        {
          "name": "C2",
          "midi": 36,
          "time": 36,
          "velocity": 0.6614173228346457,
          "duration": 1
        },
        {
          "name": "A2",
          "midi": 45,
          "time": 36,
          "velocity": 0.7244094488188977,
          "duration": 1
        },
        {
          "name": "C2",
          "midi": 36,
          "time": 37,
          "velocity": 0.6614173228346457,
          "duration": 1
        },
        {
          "name": "D2",
          "midi": 38,
          "time": 39,
          "velocity": 0.6614173228346457,
          "duration": 1
        },
        {
          "name": "C2",
          "midi": 36,
          "time": 40,
          "velocity": 0.6614173228346457,
          "duration": 1
        },
        {
          "name": "C2",
          "midi": 36,
          "time": 41,
          "velocity": 0.6614173228346457,
          "duration": 1
        },
        {
          "name": "D2",
          "midi": 38,
          "time": 43,
          "velocity": 0.6614173228346457,
          "duration": 1
        },
        {
          "name": "C2",
          "midi": 36,
          "time": 44,
          "velocity": 0.6614173228346457,
          "duration": 1
        },
        {
          "name": "C2",
          "midi": 36,
          "time": 45,
          "velocity": 0.6692913385826772,
          "duration": 1
        },
        {
          "name": "D2",
          "midi": 38,
          "time": 47,
          "velocity": 0.6692913385826772,
          "duration": 1
        }
      ],
      "controlChanges": {},
      "id": 0,
      "name": "drumsMIDI",
      "channelNumber": 0,
      "isPercussion": false
    },
    {
      "startTime": 4,
      "duration": 49,
      "length": 77,
      "notes": [
        {
          "name": "F2",
          "midi": 41,
          "time": 4,
          "velocity": 0.7637795275590551,
          "duration": 1
        },
        {
          "name": "F#2",
          "midi": 42,
          "time": 4,
          "velocity": 1,
          "duration": 0.5
        },
        {
          "name": "F#2",
          "midi": 42,
          "time": 4.5,
          "velocity": 1,
          "duration": 0.5
        },
        {
          "name": "F2",
          "midi": 41,
          "time": 5,
          "velocity": 0.7559055118110236,
          "duration": 1
        },
        {
          "name": "F#2",
          "midi": 42,
          "time": 5,
          "velocity": 1,
          "duration": 0.5
        },
        {
          "name": "F#2",
          "midi": 42,
          "time": 5.5,
          "velocity": 1,
          "duration": 0.5
        },
        {
          "name": "F2",
          "midi": 41,
          "time": 6,
          "velocity": 0.7559055118110236,
          "duration": 1
        },
        {
          "name": "F#2",
          "midi": 42,
          "time": 6,
          "velocity": 1,
          "duration": 0.5
        },
        {
          "name": "F#2",
          "midi": 42,
          "time": 6.5,
          "velocity": 1,
          "duration": 0.5
        },
        {
          "name": "F2",
          "midi": 41,
          "time": 7,
          "velocity": 0.7559055118110236,
          "duration": 1
        },
        {
          "name": "F#2",
          "midi": 42,
          "time": 7,
          "velocity": 1,
          "duration": 0.5
        },
        {
          "name": "F#2",
          "midi": 42,
          "time": 7.5,
          "velocity": 1,
          "duration": 0.5
        },
        {
          "name": "F2",
          "midi": 41,
          "time": 8,
          "velocity": 0.7480314960629921,
          "duration": 1
        },
        {
          "name": "F#2",
          "midi": 42,
          "time": 8,
          "velocity": 1,
          "duration": 0.5
        },
        {
          "name": "F#2",
          "midi": 42,
          "time": 8.5,
          "velocity": 1,
          "duration": 0.5
        },
        {
          "name": "F2",
          "midi": 41,
          "time": 9,
          "velocity": 0.7480314960629921,
          "duration": 1
        },
        {
          "name": "F#2",
          "midi": 42,
          "time": 9,
          "velocity": 1,
          "duration": 0.5
        },
        {
          "name": "F#2",
          "midi": 42,
          "time": 9.5,
          "velocity": 1,
          "duration": 0.5
        },
        {
          "name": "F2",
          "midi": 41,
          "time": 10,
          "velocity": 0.7480314960629921,
          "duration": 1
        },
        {
          "name": "F#2",
          "midi": 42,
          "time": 10,
          "velocity": 1,
          "duration": 0.5
        },
        {
          "name": "F#2",
          "midi": 42,
          "time": 10.5,
          "velocity": 1,
          "duration": 0.5
        },
        {
          "name": "F2",
          "midi": 41,
          "time": 11,
          "velocity": 0.7480314960629921,
          "duration": 1
        },
        {
          "name": "F#2",
          "midi": 42,
          "time": 11,
          "velocity": 1,
          "duration": 0.5
        },
        {
          "name": "F#2",
          "midi": 42,
          "time": 11.5,
          "velocity": 1,
          "duration": 0.5
        },
        {
          "name": "F2",
          "midi": 41,
          "time": 12,
          "velocity": 0.7480314960629921,
          "duration": 1
        },
        {
          "name": "F#2",
          "midi": 42,
          "time": 12,
          "velocity": 1,
          "duration": 0.5
        },
        {
          "name": "F#2",
          "midi": 42,
          "time": 12.5,
          "velocity": 1,
          "duration": 0.5
        },
        {
          "name": "F2",
          "midi": 41,
          "time": 13,
          "velocity": 0.7480314960629921,
          "duration": 1
        },
        {
          "name": "F#2",
          "midi": 42,
          "time": 13,
          "velocity": 1,
          "duration": 0.5
        },
        {
          "name": "F#2",
          "midi": 42,
          "time": 13.5,
          "velocity": 1,
          "duration": 0.5
        },
        {
          "name": "F2",
          "midi": 41,
          "time": 14,
          "velocity": 0.7480314960629921,
          "duration": 1
        },
        {
          "name": "F#2",
          "midi": 42,
          "time": 14,
          "velocity": 1,
          "duration": 0.5
        },
        {
          "name": "F#2",
          "midi": 42,
          "time": 14.5,
          "velocity": 1,
          "duration": 0.5
        },
        {
          "name": "F2",
          "midi": 41,
          "time": 15,
          "velocity": 0.7480314960629921,
          "duration": 1
        },
        {
          "name": "F#2",
          "midi": 42,
          "time": 15,
          "velocity": 1,
          "duration": 0.5
        },
        {
          "name": "F#2",
          "midi": 42,
          "time": 15.5,
          "velocity": 1,
          "duration": 0.5
        },
        {
          "name": "D2",
          "midi": 38,
          "time": 17,
          "velocity": 0.6614173228346457,
          "duration": 1
        },
        {
          "name": "D2",
          "midi": 38,
          "time": 19,
          "velocity": 0.6614173228346457,
          "duration": 1
        },
        {
          "name": "D2",
          "midi": 38,
          "time": 21,
          "velocity": 0.6614173228346457,
          "duration": 1
        },
        {
          "name": "D2",
          "midi": 38,
          "time": 23,
          "velocity": 0.6614173228346457,
          "duration": 1
        },
        {
          "name": "C2",
          "midi": 36,
          "time": 24,
          "velocity": 0.6614173228346457,
          "duration": 1
        },
        {
          "name": "C2",
          "midi": 36,
          "time": 25,
          "velocity": 0.6614173228346457,
          "duration": 1
        },
        {
          "name": "D2",
          "midi": 38,
          "time": 27,
          "velocity": 0.6614173228346457,
          "duration": 1
        },
        {
          "name": "C2",
          "midi": 36,
          "time": 28,
          "velocity": 0.6614173228346457,
          "duration": 1
        },
        {
          "name": "C2",
          "midi": 36,
          "time": 29,
          "velocity": 0.6614173228346457,
          "duration": 1
        },
        {
          "name": "D2",
          "midi": 38,
          "time": 31,
          "velocity": 0.6614173228346457,
          "duration": 1
        },
        {
          "name": "C2",
          "midi": 36,
          "time": 32,
          "velocity": 0.6614173228346457,
          "duration": 1
        },
        {
          "name": "C2",
          "midi": 36,
          "time": 33,
          "velocity": 0.6614173228346457,
          "duration": 1
        },
        {
          "name": "D2",
          "midi": 38,
          "time": 35,
          "velocity": 0.6614173228346457,
          "duration": 1
        },
        {
          "name": "C2",
          "midi": 36,
          "time": 36,
          "velocity": 0.6614173228346457,
          "duration": 1
        },
        {
          "name": "C2",
          "midi": 36,
          "time": 37,
          "velocity": 0.6692913385826772,
          "duration": 1
        },
        {
          "name": "D2",
          "midi": 38,
          "time": 39,
          "velocity": 0.6692913385826772,
          "duration": 1
        },
        {
          "name": "F#2",
          "midi": 42,
          "time": 40,
          "velocity": 1,
          "duration": 0.5
        },
        {
          "name": "A2",
          "midi": 45,
          "time": 40,
          "velocity": 0.7244094488188977,
          "duration": 1
        },
        {
          "name": "F#2",
          "midi": 42,
          "time": 40.5,
          "velocity": 1,
          "duration": 0.5
        },
        {
          "name": "F#2",
          "midi": 42,
          "time": 41,
          "velocity": 1,
          "duration": 0.5
        },
        {
          "name": "A2",
          "midi": 45,
          "time": 41,
          "velocity": 0.7244094488188977,
          "duration": 1
        },
        {
          "name": "F2",
          "midi": 41,
          "time": 42,
          "velocity": 1,
          "duration": 0.5
        },
        {
          "name": "A2",
          "midi": 45,
          "time": 42,
          "velocity": 0.7244094488188977,
          "duration": 1
        },
        {
          "name": "F#2",
          "midi": 42,
          "time": 42.5,
          "velocity": 1,
          "duration": 0.5
        },
        {
          "name": "F#2",
          "midi": 42,
          "time": 43,
          "velocity": 1,
          "duration": 0.5
        },
        {
          "name": "A2",
          "midi": 45,
          "time": 43,
          "velocity": 0.7244094488188977,
          "duration": 1
        },
        {
          "name": "F#2",
          "midi": 42,
          "time": 43.5,
          "velocity": 1,
          "duration": 0.5
        },
        {
          "name": "F#2",
          "midi": 42,
          "time": 44,
          "velocity": 1,
          "duration": 0.5
        },
        {
          "name": "A2",
          "midi": 45,
          "time": 44,
          "velocity": 0.7244094488188977,
          "duration": 1
        },
        {
          "name": "F#2",
          "midi": 42,
          "time": 44.5,
          "velocity": 1,
          "duration": 0.5
        },
        {
          "name": "F#2",
          "midi": 42,
          "time": 45,
          "velocity": 1,
          "duration": 0.5
        },
        {
          "name": "A2",
          "midi": 45,
          "time": 45,
          "velocity": 0.7244094488188977,
          "duration": 1
        },
        {
          "name": "F#2",
          "midi": 42,
          "time": 45.5,
          "velocity": 1,
          "duration": 0.5
        },
        {
          "name": "F2",
          "midi": 41,
          "time": 46,
          "velocity": 1,
          "duration": 0.5
        },
        {
          "name": "F#2",
          "midi": 42,
          "time": 46,
          "velocity": 1,
          "duration": 0.5
        },
        {
          "name": "A2",
          "midi": 45,
          "time": 46,
          "velocity": 0.7244094488188977,
          "duration": 1
        },
        {
          "name": "F#2",
          "midi": 42,
          "time": 46.5,
          "velocity": 1,
          "duration": 0.5
        },
        {
          "name": "F#2",
          "midi": 42,
          "time": 47,
          "velocity": 1,
          "duration": 0.5
        },
        {
          "name": "A2",
          "midi": 45,
          "time": 47,
          "velocity": 0.7244094488188977,
          "duration": 1
        },
        {
          "name": "F#2",
          "midi": 42,
          "time": 47.5,
          "velocity": 1,
          "duration": 0.5
        },
        {
          "name": "A2",
          "midi": 45,
          "time": 48,
          "velocity": 0.7244094488188977,
          "duration": 1
        }
      ],
      "controlChanges": {},
      "id": 0,
      "name": "drumsMIDI",
      "channelNumber": 0,
      "isPercussion": false
    },
    {
      "startTime": 4,
      "duration": 47.5,
      "length": 78,
      "notes": [
        {
          "name": "C2",
          "midi": 36,
          "time": 4,
          "velocity": 0.7874015748031497,
          "duration": 0.5
        },
        {
          "name": "D2",
          "midi": 38,
          "time": 5.5,
          "velocity": 0.7559055118110236,
          "duration": 0.5
        },
        {
          "name": "C2",
          "midi": 36,
          "time": 7,
          "velocity": 0.7795275590551181,
          "duration": 0.5
        },
        {
          "name": "D2",
          "midi": 38,
          "time": 7.5,
          "velocity": 0.7795275590551181,
          "duration": 0.5
        },
        {
          "name": "C2",
          "midi": 36,
          "time": 8,
          "velocity": 1,
          "duration": 0.5
        },
        {
          "name": "D2",
          "midi": 38,
          "time": 9.5,
          "velocity": 0.7559055118110236,
          "duration": 0.5
        },
        {
          "name": "C2",
          "midi": 36,
          "time": 11,
          "velocity": 0.7480314960629921,
          "duration": 0.5
        },
        {
          "name": "D2",
          "midi": 38,
          "time": 11.5,
          "velocity": 0.7559055118110236,
          "duration": 0.5
        },
        {
          "name": "C2",
          "midi": 36,
          "time": 12,
          "velocity": 1,
          "duration": 0.5
        },
        {
          "name": "D2",
          "midi": 38,
          "time": 12.5,
          "velocity": 0.7559055118110236,
          "duration": 0.25
        },
        {
          "name": "F#2",
          "midi": 42,
          "time": 12.75,
          "velocity": 0.7559055118110236,
          "duration": 0.25
        },
        {
          "name": "D2",
          "midi": 38,
          "time": 13.5,
          "velocity": 0.7559055118110236,
          "duration": 0.25
        },
        {
          "name": "D2",
          "midi": 38,
          "time": 14.5,
          "velocity": 0.7559055118110236,
          "duration": 0.25
        },
        {
          "name": "F#2",
          "midi": 42,
          "time": 14.75,
          "velocity": 0.7559055118110236,
          "duration": 0.25
        },
        {
          "name": "D2",
          "midi": 38,
          "time": 15.5,
          "velocity": 0.7559055118110236,
          "duration": 0.25
        },
        {
          "name": "C2",
          "midi": 36,
          "time": 16,
          "velocity": 1,
          "duration": 0.5
        },
        {
          "name": "D2",
          "midi": 38,
          "time": 16.5,
          "velocity": 0.7559055118110236,
          "duration": 0.25
        },
        {
          "name": "F#2",
          "midi": 42,
          "time": 16.75,
          "velocity": 0.7559055118110236,
          "duration": 0.25
        },
        {
          "name": "D2",
          "midi": 38,
          "time": 17.5,
          "velocity": 0.7559055118110236,
          "duration": 0.25
        },
        {
          "name": "D2",
          "midi": 38,
          "time": 18.5,
          "velocity": 0.7559055118110236,
          "duration": 0.25
        },
        {
          "name": "F#2",
          "midi": 42,
          "time": 18.75,
          "velocity": 0.7559055118110236,
          "duration": 0.25
        },
        {
          "name": "D2",
          "midi": 38,
          "time": 19.5,
          "velocity": 0.7559055118110236,
          "duration": 0.25
        },
        {
          "name": "C2",
          "midi": 36,
          "time": 20,
          "velocity": 1,
          "duration": 0.5
        },
        {
          "name": "D2",
          "midi": 38,
          "time": 20.5,
          "velocity": 0.7559055118110236,
          "duration": 0.25
        },
        {
          "name": "F#2",
          "midi": 42,
          "time": 20.75,
          "velocity": 0.7559055118110236,
          "duration": 0.25
        },
        {
          "name": "D2",
          "midi": 38,
          "time": 21.5,
          "velocity": 0.7559055118110236,
          "duration": 0.25
        },
        {
          "name": "D2",
          "midi": 38,
          "time": 22.5,
          "velocity": 0.7559055118110236,
          "duration": 0.25
        },
        {
          "name": "F#2",
          "midi": 42,
          "time": 22.75,
          "velocity": 0.7559055118110236,
          "duration": 0.25
        },
        {
          "name": "D2",
          "midi": 38,
          "time": 23.5,
          "velocity": 0.7559055118110236,
          "duration": 0.25
        },
        {
          "name": "F#2",
          "midi": 42,
          "time": 24,
          "velocity": 0.7637795275590551,
          "duration": 0.25
        },
        {
          "name": "F#2",
          "midi": 42,
          "time": 24.25,
          "velocity": 0.7637795275590551,
          "duration": 0.25
        },
        {
          "name": "D2",
          "midi": 38,
          "time": 24.5,
          "velocity": 0.7559055118110236,
          "duration": 0.25
        },
        {
          "name": "F#2",
          "midi": 42,
          "time": 24.75,
          "velocity": 0.7559055118110236,
          "duration": 0.25
        },
        {
          "name": "F#2",
          "midi": 42,
          "time": 25.25,
          "velocity": 0.7637795275590551,
          "duration": 0.25
        },
        {
          "name": "D2",
          "midi": 38,
          "time": 25.5,
          "velocity": 0.7559055118110236,
          "duration": 0.25
        },
        {
          "name": "F#2",
          "midi": 42,
          "time": 25.75,
          "velocity": 0.7637795275590551,
          "duration": 0.25
        },
        {
          "name": "C2",
          "midi": 36,
          "time": 26,
          "velocity": 0.7637795275590551,
          "duration": 0.25
        },
        {
          "name": "F#2",
          "midi": 42,
          "time": 26.25,
          "velocity": 0.7637795275590551,
          "duration": 0.25
        },
        {
          "name": "D2",
          "midi": 38,
          "time": 26.5,
          "velocity": 0.7559055118110236,
          "duration": 0.25
        },
        {
          "name": "F#2",
          "midi": 42,
          "time": 26.75,
          "velocity": 0.7559055118110236,
          "duration": 0.25
        },
        {
          "name": "C2",
          "midi": 36,
          "time": 27,
          "velocity": 0.7637795275590551,
          "duration": 0.25
        },
        {
          "name": "F#2",
          "midi": 42,
          "time": 27.25,
          "velocity": 0.7637795275590551,
          "duration": 0.25
        },
        {
          "name": "D2",
          "midi": 38,
          "time": 27.5,
          "velocity": 0.7637795275590551,
          "duration": 0.25
        },
        {
          "name": "F#2",
          "midi": 42,
          "time": 28,
          "velocity": 0.7637795275590551,
          "duration": 0.25
        },
        {
          "name": "F#2",
          "midi": 42,
          "time": 28.25,
          "velocity": 0.7637795275590551,
          "duration": 0.25
        },
        {
          "name": "D2",
          "midi": 38,
          "time": 28.5,
          "velocity": 0.7559055118110236,
          "duration": 0.25
        },
        {
          "name": "F#2",
          "midi": 42,
          "time": 28.75,
          "velocity": 0.7559055118110236,
          "duration": 0.25
        },
        {
          "name": "F#2",
          "midi": 42,
          "time": 29.25,
          "velocity": 0.7637795275590551,
          "duration": 0.25
        },
        {
          "name": "D2",
          "midi": 38,
          "time": 29.5,
          "velocity": 0.7559055118110236,
          "duration": 0.25
        },
        {
          "name": "F#2",
          "midi": 42,
          "time": 29.75,
          "velocity": 0.7637795275590551,
          "duration": 0.25
        },
        {
          "name": "C2",
          "midi": 36,
          "time": 30,
          "velocity": 0.7637795275590551,
          "duration": 0.25
        },
        {
          "name": "F#2",
          "midi": 42,
          "time": 30.25,
          "velocity": 0.7637795275590551,
          "duration": 0.25
        },
        {
          "name": "D2",
          "midi": 38,
          "time": 30.5,
          "velocity": 0.7559055118110236,
          "duration": 0.25
        },
        {
          "name": "F#2",
          "midi": 42,
          "time": 30.75,
          "velocity": 0.7559055118110236,
          "duration": 0.25
        },
        {
          "name": "C2",
          "midi": 36,
          "time": 31,
          "velocity": 0.7637795275590551,
          "duration": 0.25
        },
        {
          "name": "F#2",
          "midi": 42,
          "time": 31.25,
          "velocity": 0.7637795275590551,
          "duration": 0.25
        },
        {
          "name": "D2",
          "midi": 38,
          "time": 31.5,
          "velocity": 0.7637795275590551,
          "duration": 0.25
        },
        {
          "name": "D2",
          "midi": 38,
          "time": 33,
          "velocity": 1,
          "duration": 0.5
        },
        {
          "name": "C2",
          "midi": 36,
          "time": 34.5,
          "velocity": 1,
          "duration": 0.5
        },
        {
          "name": "D2",
          "midi": 38,
          "time": 35,
          "velocity": 1,
          "duration": 0.5
        },
        {
          "name": "C2",
          "midi": 36,
          "time": 36,
          "velocity": 1,
          "duration": 0.5
        },
        {
          "name": "D2",
          "midi": 38,
          "time": 37,
          "velocity": 1,
          "duration": 0.5
        },
        {
          "name": "C2",
          "midi": 36,
          "time": 38.5,
          "velocity": 1,
          "duration": 0.5
        },
        {
          "name": "D2",
          "midi": 38,
          "time": 39,
          "velocity": 1,
          "duration": 0.5
        },
        {
          "name": "C2",
          "midi": 36,
          "time": 40,
          "velocity": 1,
          "duration": 0.5
        },
        {
          "name": "D2",
          "midi": 38,
          "time": 40.5,
          "velocity": 0.36220472440944884,
          "duration": 0.5
        },
        {
          "name": "D2",
          "midi": 38,
          "time": 41,
          "velocity": 1,
          "duration": 0.5
        },
        {
          "name": "A2",
          "midi": 45,
          "time": 41.5,
          "velocity": 1,
          "duration": 0.5
        },
        {
          "name": "F2",
          "midi": 41,
          "time": 42,
          "velocity": 1,
          "duration": 0.5
        },
        {
          "name": "C2",
          "midi": 36,
          "time": 42.5,
          "velocity": 1,
          "duration": 0.5
        },
        {
          "name": "D2",
          "midi": 38,
          "time": 43,
          "velocity": 1,
          "duration": 0.5
        },
        {
          "name": "C2",
          "midi": 36,
          "time": 44,
          "velocity": 1,
          "duration": 0.5
        },
        {
          "name": "D2",
          "midi": 38,
          "time": 44.5,
          "velocity": 0.36220472440944884,
          "duration": 0.5
        },
        {
          "name": "D2",
          "midi": 38,
          "time": 45,
          "velocity": 1,
          "duration": 0.5
        },
        {
          "name": "A2",
          "midi": 45,
          "time": 45.5,
          "velocity": 1,
          "duration": 0.5
        },
        {
          "name": "F2",
          "midi": 41,
          "time": 46,
          "velocity": 1,
          "duration": 0.5
        },
        {
          "name": "C2",
          "midi": 36,
          "time": 46.5,
          "velocity": 1,
          "duration": 0.5
        },
        {
          "name": "D2",
          "midi": 38,
          "time": 47,
          "velocity": 1,
          "duration": 0.5
        }
      ],
      "controlChanges": {},
      "id": 0,
      "name": "drumsMIDI",
      "channelNumber": 0,
      "isPercussion": false
    }
  ]
}